<svg width="623" height="755" viewBox="0 0 623 755" fill="none" xmlns="http://www.w3.org/2000/svg">
<g opacity="0.5" clip-path="url(#clip0_19_98)">
<path d="M35.0649 557.233H2.41728V619.835H35.0649V557.233Z" fill="black" stroke="black" stroke-miterlimit="10"/>
<path d="M361.834 0.768799H231.259V32.0234H361.834V0.768799Z" fill="black" stroke="black" stroke-miterlimit="10"/>
<path d="M231.243 36.6355H165.963V67.8901H231.243V36.6355Z" fill="black" stroke="black" stroke-miterlimit="10"/>
<path d="M165.979 67.9055H133.331V99.1602H165.979V67.9055Z" fill="black" stroke="black" stroke-miterlimit="10"/>
<path d="M133.331 99.1602H100.684V131.183H133.331V99.1602Z" fill="black" stroke="black" stroke-miterlimit="10"/>
<path d="M67.6972 162.453H35.0496V230.728H67.6972V162.453Z" fill="black" stroke="black" stroke-miterlimit="10"/>
<path d="M35.0649 230.728H2.41728V297.742H35.0649V230.728Z" fill="black" stroke="black" stroke-miterlimit="10"/>
<path d="M2.41729 297.742H-30.2304V489.543H2.41729V297.742Z" fill="black" stroke="black" stroke-miterlimit="10"/>
<path d="M35.0649 489.543H2.41728V557.249H35.0649V489.543Z" fill="black" stroke="black" stroke-miterlimit="10"/>
<path d="M2.41729 557.233H-30.2304V683.128H2.41729V557.233Z" fill="black" stroke="black" stroke-miterlimit="10"/>
<path d="M67.6972 557.233H35.0496V683.128H67.6972V557.233Z" fill="black" stroke="black" stroke-miterlimit="10"/>
<path d="M35.0649 683.128H2.41728V715.736H35.0649V683.128Z" fill="black" stroke="black" stroke-miterlimit="10"/>
<path d="M100.345 131.184H67.6972V162.438H100.345V131.184Z" fill="black" stroke="black" stroke-miterlimit="10"/>
<path d="M231.259 36.6509L361.834 36.6509V5.39625L231.259 5.39625V36.6509Z" fill="black" stroke="black" stroke-miterlimit="10"/>
<path d="M361.834 67.9055L425.236 67.9055V36.6509L361.834 36.6509V67.9055Z" fill="black" stroke="black" stroke-miterlimit="10"/>
<path d="M425.405 99.1602H458.053V67.9055H425.405V99.1602Z" fill="black" stroke="black" stroke-miterlimit="10"/>
<path d="M458.161 131.184H490.809V99.1603H458.161V131.184Z" fill="black" stroke="black" stroke-miterlimit="10"/>
<path d="M523.533 230.712H556.181V162.438H523.533V230.712Z" fill="black" stroke="black" stroke-miterlimit="10"/>
<path d="M556.196 297.726H588.844V230.713H556.196V297.726Z" fill="black" stroke="black" stroke-miterlimit="10"/>
<path d="M588.828 489.528H621.476V297.726H588.828V489.528Z" fill="black" stroke="black" stroke-miterlimit="10"/>
<path d="M556.95 557.018H589.598V490.005H556.95V557.018Z" fill="black" stroke="black" stroke-miterlimit="10"/>
<path d="M589.583 685.834H622.23V557.249H589.583V685.834Z" fill="black" stroke="black" stroke-miterlimit="10"/>
<path d="M524.364 685.88H557.012V557.233H524.364V685.88Z" fill="black" stroke="black" stroke-miterlimit="10"/>
<path d="M556.95 718.426H589.598V685.819H556.95V718.426Z" fill="black" stroke="black" stroke-miterlimit="10"/>
<path d="M490.901 162.453H523.548V131.199H490.901V162.453Z" fill="black" stroke="black" stroke-miterlimit="10"/>
<path d="M100.345 619.85H67.6972V652.458H100.345V619.85Z" fill="black" stroke="black" stroke-miterlimit="10"/>
<path d="M132.993 652.442H100.345V685.05H132.993V652.442Z" fill="black" stroke="black" stroke-miterlimit="10"/>
<path d="M165.64 685.05H132.993V753.755H165.64V685.05Z" fill="black" stroke="black" stroke-miterlimit="10"/>
<path d="M261.09 685.05H228.442V753.755H261.09V685.05Z" fill="black" stroke="black" stroke-miterlimit="10"/>
<path d="M364.266 685.05H331.618V753.755H364.266V685.05Z" fill="black" stroke="black" stroke-miterlimit="10"/>
<path d="M336.436 717.658V685.05H258.95V717.658H336.436Z" fill="black" stroke="black" stroke-miterlimit="10"/>
<path d="M491.717 652.719H524.364V620.112H491.717V652.719Z" fill="black" stroke="black" stroke-miterlimit="10"/>
<path d="M458.392 685.619H491.84V652.212H458.392V685.619Z" fill="black" stroke="black" stroke-miterlimit="10"/>
<path d="M426.883 754.231H459.531V685.527H426.883V754.231Z" fill="black" stroke="black" stroke-miterlimit="10"/>
<path d="M362.111 525.241V492.633H228.427V525.241H362.111Z" fill="black" stroke="black" stroke-miterlimit="10"/>
<path d="M327.924 424.743H295.277V457.351H327.924V424.743Z" fill="black" stroke="black" stroke-miterlimit="10"/>
<path d="M228.442 262.152H130.899V294.759H228.442V262.152Z" fill="black" stroke="black" stroke-miterlimit="10"/>
<path d="M463.271 229.544H395.882V262.152H463.271V229.544Z" fill="black" stroke="black" stroke-miterlimit="10"/>
<path d="M395.882 262.152H363.235V294.759H395.882V262.152Z" fill="black" stroke="black" stroke-miterlimit="10"/>
<path d="M523.287 294.759H67.2662V327.367H523.287V294.759Z" fill="black" stroke="black" stroke-miterlimit="10"/>
<path d="M264.615 327.367H99.9139V359.974H264.615V327.367Z" fill="black" stroke="black" stroke-miterlimit="10"/>
<path d="M264.615 359.528H99.9139V392.136H264.615V359.528Z" fill="black" stroke="black" stroke-miterlimit="10"/>
<path d="M264.615 392.136H99.9139V424.743H264.615V392.136Z" fill="black" stroke="black" stroke-miterlimit="10"/>
<path d="M492.625 327.367H327.924V359.974H492.625V327.367Z" fill="black" stroke="black" stroke-miterlimit="10"/>
<path d="M492.625 359.959H327.924V392.566H492.625V359.959Z" fill="black" stroke="black" stroke-miterlimit="10"/>
<path d="M100.345 557.233H67.6972V619.835H100.345V557.233Z" fill="black" stroke="black" stroke-miterlimit="10"/>
<path d="M198.119 685.05H165.471V753.724H198.119V685.05Z" fill="black" stroke="black" stroke-miterlimit="10"/>
<path d="M165.64 652.442H132.993V685.05H165.64V652.442Z" fill="black" stroke="black" stroke-miterlimit="10"/>
<path d="M132.993 619.85H100.345V652.458H132.993V619.85Z" fill="black" stroke="black" stroke-miterlimit="10"/>
<path d="M35.0649 619.85H2.41728V652.458H35.0649V619.85Z" fill="black" stroke="black" stroke-miterlimit="10"/>
<path d="M230.766 587.458H198.119V620.066H230.766V587.458Z" fill="black" stroke="black" stroke-miterlimit="10"/>
<path d="M556.95 620.296H589.598V557.003H556.95V620.296Z" fill="black" stroke="black" stroke-miterlimit="10"/>
<path d="M491.717 620.296H524.364V557.233H491.717V620.296Z" fill="black" stroke="black" stroke-miterlimit="10"/>
<path d="M394.574 753.74H427.222V685.065H394.574V753.74Z" fill="black" stroke="black" stroke-miterlimit="10"/>
<path d="M426.006 685.527H459.131V652.443H426.006V685.527Z" fill="black" stroke="black" stroke-miterlimit="10"/>
<path d="M458.392 653.119H491.717V619.835H458.392V653.119Z" fill="black" stroke="black" stroke-miterlimit="10"/>
<path d="M556.95 652.719H589.598V620.112H556.95V652.719Z" fill="black" stroke="black" stroke-miterlimit="10"/>
<path d="M363.235 619.835H395.882V587.227H363.235V619.835Z" fill="black" stroke="black" stroke-miterlimit="10"/>
<path d="M198.119 587.458H100.345V620.066H198.119V587.458Z" fill="black" stroke="black" stroke-miterlimit="10"/>
<path d="M230.689 619.85H132.916V652.458H230.689V619.85Z" fill="black" stroke="black" stroke-miterlimit="10"/>
<path d="M364.251 652.442H165.548V685.05H364.251V652.442Z" fill="black" stroke="black" stroke-miterlimit="10"/>
<path d="M195.964 753.724H228.611V685.05H195.964V753.724Z" fill="black" stroke="black" stroke-miterlimit="10"/>
<path d="M395.605 620.05H491.763V587.443H395.605V620.05Z" fill="black" stroke="black" stroke-miterlimit="10"/>
<path d="M361.249 652.442H459.023V619.835H361.249V652.442Z" fill="black" stroke="black" stroke-miterlimit="10"/>
<path d="M227.688 685.05H426.391V652.442H227.688V685.05Z" fill="black" stroke="black" stroke-miterlimit="10"/>
<path d="M395.975 685.05H363.327V753.724H395.975V685.05Z" fill="black" stroke="black" stroke-miterlimit="10"/>
<path d="M230.766 652.442H363.296V619.835H230.766V652.442Z" fill="black" stroke="black" stroke-miterlimit="10"/>
<path d="M35.0649 428.894H2.41728V489.543H35.0649V428.894Z" fill="black" stroke="black" stroke-miterlimit="10"/>
<path d="M99.8985 459.211H35.0496V557.234H99.8985V459.211Z" fill="black" stroke="black" stroke-miterlimit="10"/>
<path d="M165.471 526.917H100.345V587.566H165.471V526.917Z" fill="black" stroke="black" stroke-miterlimit="10"/>
<path d="M198.119 557.126H165.471V587.443H198.119V557.126Z" fill="black" stroke="black" stroke-miterlimit="10"/>
<path d="M556.196 490.758H588.844V430.109H556.196V490.758Z" fill="black" stroke="black" stroke-miterlimit="10"/>
<path d="M491.332 556.926H556.181V458.904H491.332V556.926Z" fill="black" stroke="black" stroke-miterlimit="10"/>
<path d="M425.775 587.243H490.901V526.594H425.775V587.243Z" fill="black" stroke="black" stroke-miterlimit="10"/>
<path d="M393.127 587.12H425.775V556.803H393.127V587.12Z" fill="black" stroke="black" stroke-miterlimit="10"/>
<path d="M492.625 392.136H327.924V424.743H492.625V392.136Z" fill="black" stroke="black" stroke-miterlimit="10"/>
<path d="M428.622 556.818H395.975V587.135H428.622V556.818Z" fill="black" stroke="black" stroke-miterlimit="10"/>
</g>
<defs>
<clipPath id="clip0_19_98">
<rect width="654" height="755" fill="white" transform="translate(-31)"/>
</clipPath>
</defs>
</svg>
