<svg width="14" height="7" viewBox="0 0 14 7" fill="none" xmlns="http://www.w3.org/2000/svg">
<path d="M1.59967 3.32992C1.59967 2.18992 2.52634 1.26325 3.66634 1.26325H6.33301V-0.00341797H3.66634C1.82634 -0.00341797 0.333008 1.48992 0.333008 3.32992C0.333008 5.16992 1.82634 6.66325 3.66634 6.66325H6.33301V5.39658H3.66634C2.52634 5.39658 1.59967 4.46992 1.59967 3.32992ZM4.33301 3.99658H9.66634V2.66325H4.33301V3.99658ZM10.333 -0.00341797H7.66634V1.26325H10.333C11.473 1.26325 12.3997 2.18992 12.3997 3.32992C12.3997 4.46992 11.473 5.39658 10.333 5.39658H7.66634V6.66325H10.333C12.173 6.66325 13.6663 5.16992 13.6663 3.32992C13.6663 1.48992 12.173 -0.00341797 10.333 -0.00341797Z" fill="#AF9144"/>
</svg>
